<?xml version="1.0" encoding="utf-8"?>
<?xml-stylesheet type="text/css" href="svg-style.css" ?>
<!-- Generator: Adobe Illustrator 19.1.0, SVG Export Plug-In . SVG Version: 6.00 Build 0)  -->
<svg version="1.1" id="Layer_1" xmlns="http://www.w3.org/2000/svg" xmlns:xlink="http://www.w3.org/1999/xlink" x="0px" y="0px"
   viewBox="126 -36 864 864" style="enable-background:new 126 -36 864 864;" xml:space="preserve">
<style type="text/css">
  .st0{fill:#BBBBBB;}
  .st1{fill:#010101;}
  .st2{fill:#FFCCCC;}
  .st3{fill:#EEEEEE;}
  .st4{fill:#594A42;}
  .st5{fill:#E6E7E8;}
  .st6{fill:#797778;}
</style>
<path class="st0" d="M444.5,166.9c0,66.3-68.1,120-129.6,120c-55.4,0-129.6-53.7-129.6-120c0-66.3,58-120,129.6-120
  C386.5,46.9,444.5,100.6,444.5,166.9"/>
<path class="st1" d="M177.6,69.8c0-30.3,21.1-54.9,47.2-54.9c26,0,47.2,24.6,47.2,54.9c0,30.3-21.1,54.9-47.2,54.9
  C198.7,124.7,177.6,100.1,177.6,69.8"/>
<path class="st1" d="M369.8,69.8c0-30.3,21.1-54.9,47.2-54.9c26.1,0,47.2,24.6,47.2,54.9c0,30.3-21.1,54.9-47.2,54.9
  C390.9,124.7,369.8,100.1,369.8,69.8"/>
<path class="st2" d="M197.2,69.8c0-17.7,12.3-32.1,27.6-32.1c15.2,0,27.6,14.4,27.6,32.1c0,17.7-12.4,32.1-27.6,32.1
  C209.6,101.9,197.2,87.5,197.2,69.8"/>
<path class="st2" d="M389.4,69.8c0-17.7,12.3-32.1,27.6-32.1c15.2,0,27.6,14.4,27.6,32.1c0,17.7-12.3,32.1-27.6,32.1
  C401.7,101.9,389.4,87.5,389.4,69.8"/>
<path class="st3" d="M316.1,47.8c-72.2,0-130.7,53.3-130.7,119c0,65.7,74.9,119,130.7,119c62,0,130.7-53.3,130.7-119
  C446.8,101.1,388.3,47.8,316.1,47.8z M338.1,255.7c-10.6,0-19.3-5.4-20.6-12.4c-1.3,7-10,12.4-20.6,12.4c-11.5,0-20.8-6.4-20.8-14.3
  c0-0.6,0.1-1.2,0.2-1.7c1.3,7.1,10,12.5,20.6,12.5c10.4,0,19-5.3,20.5-12.2c0-0.1,0-0.2,0-0.3c0,0,0,0,0,0.1c0,0,0-0.1,0-0.1
  c0,0.1,0,0.2,0.1,0.3c1.5,6.9,10.1,12.2,20.5,12.2c10.6,0,19.3-5.5,20.6-12.5c0.1,0.6,0.2,1.2,0.2,1.7
  C358.9,249.3,349.6,255.7,338.1,255.7z"/>
<path class="st1" d="M279.4,109.7c19,8.7,24.5,30.4,12.3,48.5c-12.3,18.1-37.6,25.7-56.6,17c-19-8.7-24.5-30.4-12.3-48.5
  C235,108.6,260.4,101,279.4,109.7"/>
<path class="st1" d="M347.6,109.7c-19,8.7-24.5,30.4-12.3,48.5c12.3,18.1,37.6,25.7,56.6,17c19-8.7,24.5-30.4,12.3-48.5
  C392,108.6,366.6,101,347.6,109.7"/>
<path class="st4" d="M390.7,140.4c0,14.6-11.8,26.4-26.4,26.4c-14.6,0-26.4-11.8-26.4-26.4c0-14.6,11.8-26.4,26.4-26.4
  C378.9,114,390.7,125.8,390.7,140.4"/>
<path class="st4" d="M283.6,140.4c0,14.6-11.8,26.4-26.4,26.4c-14.6,0-26.4-11.8-26.4-26.4c0-14.6,11.8-26.4,26.4-26.4
  C271.8,114,283.6,125.8,283.6,140.4"/>
<path class="st1" d="M279.7,141.4c0,12.4-10.1,22.5-22.5,22.5c-12.4,0-22.5-10.1-22.5-22.5s10.1-22.5,22.5-22.5
  C269.6,119,279.7,129,279.7,141.4"/>
<path class="st1" d="M386.7,141.4c0,12.4-10.1,22.5-22.5,22.5c-12.4,0-22.5-10.1-22.5-22.5s10.1-22.5,22.5-22.5
  C376.7,119,386.7,129,386.7,141.4"/>
<path class="st5" d="M276.6,143.2c0,3.8-3.1,6.9-6.9,6.9c-3.8,0-6.9-3.1-6.9-6.9c0-3.8,3.1-6.9,6.9-6.9
  C273.5,136.3,276.6,139.4,276.6,143.2z"/>
<path class="st5" d="M364.3,147.3c0,3.8-3.1,6.9-6.9,6.9c-3.8,0-6.9-3.1-6.9-6.9c0-3.8,3.1-6.9,6.9-6.9
  C361.2,140.4,364.3,143.5,364.3,147.3z"/>
<path class="st1" d="M335.6,225.4c0,4.8-8,14.3-18,14.3c-9.9,0-18-9.4-18-14.3c0-4.8,8-8.7,18-8.7
  C327.5,216.7,335.6,220.6,335.6,225.4z"/>
<path class="st6" d="M323.2,228.2c0,1.8-2.5,3.2-5.6,3.2c-3.1,0-5.6-1.5-5.6-3.2c0-1.7,2.5-3.2,5.6-3.2
  C320.7,225,323.2,226.4,323.2,228.2z"/>
</svg>
